<svg width="90" height="90" viewBox="0 0 90 90" fill="none" xmlns="http://www.w3.org/2000/svg">
<path d="M45 0C20.1475 0 0 20.1472 0 45C0 69.8528 20.1475 90 45 90C69.8525 90 90 69.8528 90 45C90 20.1472 69.8525 0 45 0ZM60.5531 47.3854L38.0531 61.4479C37.5979 61.7321 37.0802 61.875 36.5625 61.875C36.0935 61.875 35.6238 61.7583 35.1988 61.522C34.3048 61.0263 33.75 60.0855 33.75 59.0625V30.9375C33.75 29.9145 34.3048 28.9737 35.1988 28.478C36.0928 27.9795 37.186 28.0097 38.0531 28.5521L60.5531 42.6146C61.3751 43.1297 61.875 44.0306 61.875 45C61.875 45.9694 61.3751 46.8705 60.5531 47.3854Z" fill="white"/>
</svg>
