<svg width="20" height="20" viewBox="0 0 20 20" fill="none" xmlns="http://www.w3.org/2000/svg">
<path d="M17.0703 0.171631H2.92969C1.31439 0.171631 0 1.47474 0 3.07617V17.0954C0 18.6969 1.31439 20 2.92969 20H17.0703C18.6856 20 20 18.6969 20 17.0954V3.07617C20 1.47474 18.6856 0.171631 17.0703 0.171631ZM10.0391 15.2753C7.1312 15.2753 4.76562 12.93 4.76562 10.0471C4.76562 7.16417 7.1312 4.8189 10.0391 4.8189C12.9469 4.8189 15.3125 7.16417 15.3125 10.0471C15.3125 12.93 12.9469 15.2753 10.0391 15.2753ZM15.8984 5.98072C14.9292 5.98072 14.1406 5.19891 14.1406 4.23799C14.1406 3.27707 14.9292 2.49527 15.8984 2.49527C16.8677 2.49527 17.6562 3.27707 17.6562 4.23799C17.6562 5.19891 16.8677 5.98072 15.8984 5.98072Z" fill="white"/>
<path d="M15.8985 3.65698C15.5752 3.65698 15.3126 3.91733 15.3126 4.23789C15.3126 4.55845 15.5752 4.8188 15.8985 4.8188C16.2219 4.8188 16.4845 4.55845 16.4845 4.23789C16.4845 3.91733 16.2219 3.65698 15.8985 3.65698Z" fill="white"/>
<path d="M10.0391 5.98071C7.77777 5.98071 5.93756 7.80513 5.93756 10.0471C5.93756 12.289 7.77777 14.1134 10.0391 14.1134C12.3005 14.1134 14.1407 12.289 14.1407 10.0471C14.1407 7.80513 12.3005 5.98071 10.0391 5.98071Z" fill="white"/>
</svg>
