<svg width="108" height="28" viewBox="0 0 108 28" fill="none" xmlns="http://www.w3.org/2000/svg">
<g clip-path="url(#clip0)">
<path d="M27.927 10.7406C27.7437 10.1736 27.2408 9.77093 26.6459 9.71731L18.5643 8.98349L15.3686 1.50372C15.133 0.955545 14.5964 0.600708 14.0001 0.600708C13.4039 0.600708 12.8673 0.955545 12.6316 1.505L9.43597 8.98349L1.35312 9.71731C0.759232 9.77221 0.257633 10.1736 0.0732711 10.7406C-0.11109 11.3076 0.0591716 11.9294 0.508432 12.3214L6.61714 17.6788L4.81582 25.6136C4.68402 26.197 4.91046 26.8001 5.39454 27.15C5.65474 27.338 5.95916 27.4337 6.26615 27.4337C6.53083 27.4337 6.79339 27.3624 7.02902 27.2214L14.0001 23.055L20.9687 27.2214C21.4786 27.5282 22.1214 27.5002 22.6045 27.15C23.0888 26.799 23.315 26.1958 23.1832 25.6136L21.3819 17.6788L27.4906 12.3225C27.9398 11.9294 28.1114 11.3086 27.927 10.7406Z" fill="white"/>
</g>
<g clip-path="url(#clip1)">
<path d="M67.927 10.7406C67.7437 10.1736 67.2408 9.77093 66.6459 9.71731L58.5643 8.98349L55.3686 1.50372C55.133 0.955545 54.5964 0.600708 54.0001 0.600708C53.4039 0.600708 52.8673 0.955545 52.6316 1.505L49.436 8.98349L41.3531 9.71731C40.7592 9.77221 40.2576 10.1736 40.0733 10.7406C39.8889 11.3076 40.0592 11.9294 40.5084 12.3214L46.6171 17.6788L44.8158 25.6136C44.684 26.197 44.9105 26.8001 45.3945 27.15C45.6547 27.338 45.9592 27.4337 46.2661 27.4337C46.5308 27.4337 46.7934 27.3624 47.029 27.2214L54.0001 23.055L60.9687 27.2214C61.4786 27.5282 62.1214 27.5002 62.6045 27.15C63.0888 26.799 63.315 26.1958 63.1832 25.6136L61.3819 17.6788L67.4906 12.3225C67.9398 11.9294 68.1114 11.3086 67.927 10.7406Z" fill="white"/>
</g>
<g clip-path="url(#clip2)">
<path d="M107.927 10.7406C107.744 10.1736 107.241 9.77093 106.646 9.71731L98.5643 8.98349L95.3686 1.50372C95.133 0.955545 94.5964 0.600708 94.0001 0.600708C93.4039 0.600708 92.8673 0.955545 92.6316 1.505L89.436 8.98349L81.3531 9.71731C80.7592 9.77221 80.2576 10.1736 80.0733 10.7406C79.8889 11.3076 80.0592 11.9294 80.5084 12.3214L86.6171 17.6788L84.8158 25.6136C84.684 26.197 84.9105 26.8001 85.3945 27.15C85.6547 27.338 85.9592 27.4337 86.2661 27.4337C86.5308 27.4337 86.7934 27.3624 87.029 27.2214L94.0001 23.055L100.969 27.2214C101.479 27.5282 102.121 27.5002 102.604 27.15C103.089 26.799 103.315 26.1958 103.183 25.6136L101.382 17.6788L107.491 12.3225C107.94 11.9294 108.111 11.3086 107.927 10.7406Z" fill="white"/>
</g>
<defs>
<clipPath id="clip0">
<rect width="28" height="28" fill="white"/>
</clipPath>
<clipPath id="clip1">
<rect width="28" height="28" fill="white" transform="translate(40)"/>
</clipPath>
<clipPath id="clip2">
<rect width="28" height="28" fill="white" transform="translate(80)"/>
</clipPath>
</defs>
</svg>
