<svg width="26" height="16" viewBox="0 0 26 16" fill="none" xmlns="http://www.w3.org/2000/svg">
<path d="M21.5753 9.55812C21.155 9.03104 21.2752 8.79655 21.5753 8.32541C21.5807 8.32003 25.0508 3.55917 25.4083 1.9446L25.4105 1.94353C25.5881 1.35514 25.4105 0.922729 24.5514 0.922729H21.7086C20.9849 0.922729 20.6512 1.29383 20.4725 1.70904C20.4725 1.70904 19.0251 5.14899 16.9775 7.37883C16.3166 8.02315 16.0111 8.22968 15.6504 8.22968C15.4727 8.22968 15.1964 8.02315 15.1964 7.43477V1.94353C15.1964 1.2379 14.9939 0.922729 14.3947 0.922729H9.92476C9.47083 0.922729 9.20107 1.25188 9.20107 1.55844C9.20107 2.2275 10.2249 2.38132 10.331 4.26372V8.348C10.331 9.24295 10.1674 9.40752 9.80451 9.40752C8.83814 9.40752 6.49264 5.95358 5.10268 2.00054C4.82208 1.23359 4.54799 0.923805 3.81888 0.923805H0.975034C0.163589 0.923805 0 1.29491 0 1.71011C0 2.44371 0.966367 6.09127 4.49382 10.9102C6.84474 14.1996 10.1555 15.9819 13.1673 15.9819C14.9776 15.9819 15.1986 15.5861 15.1986 14.9052C15.1986 11.7621 15.035 11.4653 15.9418 11.4653C16.3622 11.4653 17.0858 11.6718 18.7759 13.2584C20.7076 15.1397 21.025 15.9819 22.1062 15.9819H24.9489C25.7593 15.9819 26.1699 15.5861 25.9337 14.8052C25.3931 13.1626 21.74 9.784 21.5753 9.55812Z" fill="white"/>
</svg>
