<svg width="48" height="48" viewBox="0 0 48 48" fill="none" xmlns="http://www.w3.org/2000/svg">
<g clip-path="url(#clip0)">
<path d="M24 48L38.6158 29.2621L38.6323 29.2416C41.0193 26.061 42.2812 22.2708 42.2812 18.2812C42.2812 8.20129 34.08 0 24 0C13.92 0 5.71875 8.20129 5.71875 18.2812C5.71875 22.2708 6.98071 26.061 9.38416 29.2621L24 48ZM24 5.625C30.9789 5.625 36.6562 11.3024 36.6562 18.2812C36.6562 25.2601 30.9789 30.9375 24 30.9375C17.0211 30.9375 11.3438 25.2601 11.3438 18.2812C11.3438 11.3024 17.0211 5.625 24 5.625Z" fill="white"/>
<path d="M27.2583 23.6667L26.5023 21.3987H21.4803L20.7243 23.6667H18.0423L22.4523 11.0667H25.5303L29.9583 23.6667H27.2583ZM22.2723 19.0767H25.7283L24.0003 13.9287L22.2723 19.0767Z" fill="white"/>
</g>
<defs>
<clipPath id="clip0">
<rect width="48" height="48" fill="white"/>
</clipPath>
</defs>
</svg>
