<svg width="31" height="31" viewBox="0 0 31 31" fill="none" xmlns="http://www.w3.org/2000/svg">
<g clip-path="url(#clip0)">
<path d="M27.125 7.75C27.125 3.47671 23.6483 0 19.375 0C15.1017 0 11.625 3.47671 11.625 7.75C11.625 8.19275 11.6723 8.65158 11.7697 9.14163L4.15881 16.7526C3.97717 16.9342 3.875 17.1802 3.875 17.4375V22.2812C3.875 22.8167 4.30829 23.25 4.84375 23.25H9.6875C9.94482 23.25 10.1908 23.1478 10.3724 22.9662L13.5625 19.7761V30.0313C13.5625 30.5667 13.9958 31 14.5312 31H26.1562C26.6917 31 27.125 30.5667 27.125 30.0313V17.4375C27.125 15.6135 26.3926 13.9624 25.2168 12.7423C26.4196 11.3433 27.125 9.58935 27.125 7.75ZM9.28637 21.3125H5.81249V17.8386L13.519 10.1321C13.7621 9.889 13.8586 9.53518 13.7716 9.20312C13.6287 8.65536 13.5625 8.19369 13.5625 7.75C13.5625 4.54479 16.1698 1.9375 19.375 1.9375C22.5802 1.9375 25.1875 4.54479 25.1875 7.75C25.1875 9.16067 24.6281 10.5064 23.6786 11.5694C22.959 11.1586 22.1649 10.8777 21.3125 10.7542V8.42086C21.8808 8.08265 22.2812 7.48889 22.2812 6.78125C22.2812 5.71316 21.4118 4.84375 20.3437 4.84375C19.2757 4.84375 18.4062 5.71316 18.4062 6.78125C18.4062 7.48889 18.8067 8.08265 19.375 8.42086V10.7542C16.2444 11.208 13.8207 13.7898 13.6077 16.9912L9.28637 21.3125ZM25.1875 29.0625H15.5V17.4375C15.5 15.0985 17.1668 13.1419 19.375 12.6918V14.5313C19.375 15.0667 19.8083 15.5 20.3437 15.5C20.8792 15.5 21.3125 15.0667 21.3125 14.5313V12.6918C23.5207 13.1419 25.1875 15.0985 25.1875 17.4375V29.0625Z" fill="white"/>
</g>
<defs>
<clipPath id="clip0">
<rect width="31" height="31" fill="white"/>
</clipPath>
</defs>
</svg>
