<svg width="31" height="31" viewBox="0 0 31 31" fill="none" xmlns="http://www.w3.org/2000/svg">
<path d="M30.081 9.206H23.8268V1.43009C23.8268 0.922585 23.4153 0.511108 22.9078 0.511108H8.09221C7.58471 0.511108 7.17323 0.922585 7.17323 1.43009V9.206H0.91898C0.411477 9.206 0 9.61748 0 10.125V29.5701C0 30.0776 0.411477 30.4891 0.91898 30.4891H30.081C30.5885 30.4891 31 30.0776 31 29.5701V10.125C31 9.61742 30.5885 9.206 30.081 9.206ZM7.17323 28.6511H1.83796V11.044H7.17329L7.17323 28.6511ZM16.7958 28.6511H14.2041V23.29H16.7958V28.6511ZM21.9888 10.125V28.6511H18.6338V22.371C18.6338 21.8635 18.2223 21.452 17.7148 21.452H13.2852C12.7777 21.452 12.3662 21.8635 12.3662 22.371V28.651H9.01119V10.125V2.34907H21.9888V10.125ZM29.162 28.6511H23.8267V11.044H29.162V28.6511Z" fill="white"/>
<path d="M13.3189 6.20007C12.8114 6.20007 12.4 6.61155 12.4 7.11905V12.7873C12.4 13.2949 12.8114 13.7063 13.3189 13.7063C13.8264 13.7063 14.2379 13.2949 14.2379 12.7873V7.11905C14.2379 6.61155 13.8264 6.20007 13.3189 6.20007Z" fill="white"/>
<path d="M18.1411 6.20007C17.6336 6.20007 17.2222 6.61155 17.2222 7.11905V12.7873C17.2222 13.2949 17.6336 13.7063 18.1411 13.7063C18.6487 13.7063 19.0601 13.2949 19.0601 12.7873V7.11905C19.0601 6.61155 18.6487 6.20007 18.1411 6.20007Z" fill="white"/>
<path d="M18.5284 9.87455C18.5284 9.36704 18.117 8.95557 17.6095 8.95557L13.3189 8.95557C12.8114 8.95557 12.4 9.36704 12.4 9.87455C12.4 10.3821 12.8114 10.7935 13.3189 10.7935L17.6095 10.7935C18.117 10.7935 18.5284 10.3821 18.5284 9.87455Z" fill="white"/>
</svg>
