<svg width="31" height="31" viewBox="0 0 31 31" fill="none" xmlns="http://www.w3.org/2000/svg">
<path d="M27.125 23.25H3.875C1.73788 23.25 0 24.9879 0 27.125V28.0938C0 28.6292 0.433289 29.0625 0.96875 29.0625H30.0312C30.5667 29.0625 31 28.6292 31 28.0938V27.125C31 24.9879 29.2621 23.25 27.125 23.25ZM1.9375 27.125C1.9375 26.0569 2.80691 25.1875 3.875 25.1875H27.125C28.1931 25.1875 29.0625 26.0569 29.0625 27.125H1.9375Z" fill="white"/>
<path d="M2.90625 21.3125H28.0938C28.6292 21.3125 29.0625 20.8792 29.0625 20.3437V19.375C29.0625 12.2235 23.4949 6.36178 16.4688 5.86156V4.9729C16.4688 4.43744 16.0355 4.00415 15.5 4.00415C14.9645 4.00415 14.5312 4.43744 14.5312 4.9729V5.86156C7.5051 6.36178 1.9375 12.2235 1.9375 19.375V20.3437C1.9375 20.8792 2.37079 21.3125 2.90625 21.3125ZM15.5 7.74998C21.9104 7.74998 27.125 12.9646 27.125 19.375H3.875C3.875 12.9646 9.08961 7.74998 15.5 7.74998Z" fill="white"/>
</svg>
