<svg width="31" height="31" viewBox="0 0 31 31" fill="none" xmlns="http://www.w3.org/2000/svg">
<path d="M29.7083 16.7648H1.29167C0.578664 16.7648 0 16.1862 0 15.4732C0 14.7602 0.578664 14.1815 1.29167 14.1815H29.7083C30.4213 14.1815 31 14.7602 31 15.4732C31 16.1862 30.4213 16.7648 29.7083 16.7648Z" fill="white"/>
<path d="M29.7083 6.86202H1.29167C0.578664 6.86202 0 6.28336 0 5.57035C0 4.85735 0.578664 4.27869 1.29167 4.27869H29.7083C30.4213 4.27869 31 4.85735 31 5.57035C31 6.28336 30.4213 6.86202 29.7083 6.86202Z" fill="white"/>
<path d="M29.7083 26.6674H1.29167C0.578664 26.6674 0 26.0888 0 25.3758C0 24.6628 0.578664 24.0841 1.29167 24.0841H29.7083C30.4213 24.0841 31 24.6628 31 25.3758C31 26.0888 30.4213 26.6674 29.7083 26.6674Z" fill="white"/>
</svg>
