<svg width="31" height="31" viewBox="0 0 31 31" fill="none" xmlns="http://www.w3.org/2000/svg">
<path d="M26.4602 6.33975L6.36656 26.4334C5.86239 26.9375 5.04404 26.9375 4.53987 26.4334C4.0357 25.9292 4.0357 25.1108 4.53987 24.6067L24.6335 4.51306C25.1377 4.00889 25.956 4.00889 26.4602 4.51305C26.9643 5.01722 26.9643 5.83558 26.4602 6.33975Z" fill="white"/>
<path d="M4.53988 6.33975L24.6335 26.4334C25.1377 26.9375 25.956 26.9375 26.4602 26.4334C26.9644 25.9292 26.9644 25.1108 26.4602 24.6067L6.36657 4.51306C5.8624 4.00889 5.04405 4.00889 4.53988 4.51305C4.03571 5.01722 4.03571 5.83558 4.53988 6.33975Z" fill="white"/>
</svg>
