<svg width="31" height="31" viewBox="0 0 31 31" fill="none" xmlns="http://www.w3.org/2000/svg">
<path d="M15.5 5.75C12.3265 5.75 9.75 8.35668 9.75 11.5203C9.75 14.637 12.2672 17.25 15.5 17.25C18.7274 17.25 21.25 14.6424 21.25 11.5203C21.25 8.36073 18.6779 5.75 15.5 5.75ZM15.5 15.5323C13.2383 15.5323 11.4722 13.7063 11.4722 11.5203C11.4722 9.28457 13.2807 7.46771 15.5 7.46771C17.7193 7.46771 19.5278 9.28457 19.5278 11.5203C19.5278 13.7114 17.7565 15.5323 15.5 15.5323Z" fill="white" stroke="white" stroke-width="0.5"/>
<path d="M15.5 0C8.98982 0 3.69336 5.32358 3.69336 11.8672C3.69336 14.4427 4.50808 16.8902 6.04809 18.9435L14.7721 30.635C14.9435 30.8647 15.2134 31 15.5 31C15.7866 31 16.0565 30.8647 16.2279 30.635L24.9506 18.9453C26.4919 16.8902 27.3066 14.4427 27.3066 11.8672C27.3066 5.32358 22.0102 0 15.5 0ZM23.4961 17.8572L15.5 28.5732L7.50255 17.8554C6.19885 16.1172 5.50977 14.0466 5.50977 11.8672C5.50977 6.32515 9.99138 1.81641 15.5 1.81641C21.0086 1.81641 25.4902 6.32515 25.4902 11.8672C25.4902 14.0466 24.8012 16.1172 23.4961 17.8572Z" fill="white"/>
</svg>
