<svg width="31" height="31" viewBox="0 0 31 31" fill="none" xmlns="http://www.w3.org/2000/svg">
<path d="M29.1436 0.0155029H16.154C15.1294 0.0155029 14.9416 0.463878 13.9645 1.48548L1.17725 14.234C-0.392416 15.7979 -0.392416 18.3349 1.17725 19.8998L11.1233 29.8159C12.693 31.3808 15.2369 31.3808 16.8066 29.8159L29.5948 17.0674C30.4179 16.2462 30.9999 15.8385 30.9999 14.816V1.86604C30.999 0.843466 30.1681 0.0155029 29.1436 0.0155029ZM15.3851 28.3992C14.6007 29.1816 13.3283 29.1816 12.543 28.3992L2.59785 18.4832C1.81349 17.7008 1.81349 16.4322 2.59785 15.6498L4.03399 14.2185L16.7911 26.9971L15.3851 28.3992ZM29.1436 13.8912C29.1436 14.4024 28.6739 15.152 28.1733 15.6507L18.2272 25.5667L5.45459 12.8018L15.3851 2.90218C15.8412 2.44707 16.5684 1.86604 17.0807 1.86604H28.2149C28.7272 1.86604 29.1426 2.28052 29.1426 2.79085V13.8912H29.1436ZM18.938 6.44349C17.3683 8.00839 17.3683 10.5445 18.938 12.1094C20.5077 13.6743 23.0516 13.6743 24.6213 12.1094C26.1911 10.5445 26.1911 8.00834 24.6213 6.44349C23.0516 4.87864 20.5068 4.87864 18.938 6.44349ZM23.1998 10.6927C22.4154 11.4751 21.143 11.4751 20.3577 10.6927C19.5733 9.91024 19.5733 8.64165 20.3577 7.85922C21.142 7.0768 22.4145 7.0768 23.1998 7.85922C23.9851 8.6417 23.9851 9.91024 23.1998 10.6927Z" fill="white"/>
</svg>
