<svg width="50" height="50" viewBox="0 0 50 50" fill="none" xmlns="http://www.w3.org/2000/svg">
<path d="M0 25.5755V29.97H1.46484V27.0403H48.5352V34.3645H1.46484V31.4348H0V35.8294H50V25.5755H0Z" fill="#CCCCCC"/>
<path d="M25.7324 38.7591H39.9262L41.3909 43.886H45.6055V38.7591H48.5352V37.2942H25.7324V38.7591ZM44.1406 42.4212H42.4958L41.4495 38.7591H44.1406V42.4212Z" fill="#CCCCCC"/>
<path d="M1.46484 38.7591H4.39453V43.886H8.60908L10.0739 38.7591H24.2676V37.2942H1.46484V38.7591ZM7.5041 42.4212H5.85938V38.7591H8.55049L7.5041 42.4212Z" fill="#CCCCCC"/>
<path d="M47.0703 19.1667H48.5352V24.1107H47.0703V19.1667Z" fill="#CCCCCC"/>
<path d="M1.46484 12.7578V24.1106H2.92969V12.7578C2.92969 12.354 3.2582 12.0255 3.66211 12.0255C4.06602 12.0255 4.39453 12.354 4.39453 12.7578V24.1106H5.85938V17.8769C10.201 17.7903 13.6943 16.9228 16.7844 15.1688C19.7288 15.2027 21.5133 16.0458 21.9595 19.8062C21.7622 19.7479 21.5538 19.7161 21.3379 19.7161H9.52149C8.30986 19.7161 7.32422 20.7018 7.32422 21.9134V24.1106H8.78906V21.9134C8.78906 21.5095 9.11758 21.1809 9.52149 21.1809H21.3379C21.7418 21.1809 22.0703 21.5095 22.0703 21.9134V24.1106H23.5352V21.9134C23.5352 18.7983 22.9684 16.7394 21.7514 15.434C20.9994 14.6274 20.0305 14.123 18.7296 13.879C18.9753 13.6979 19.2192 13.5149 19.4605 13.3335C21.216 12.013 23.0313 10.6474 25 10.6474C26.9687 10.6474 28.7839 12.0129 30.5395 13.3335C30.7807 13.5149 31.0246 13.6979 31.2704 13.879C29.9695 14.123 29.0006 14.6274 28.2486 15.434C27.0316 16.7393 26.4648 18.7982 26.4648 21.9134V24.1106H27.9297V21.9134C27.9297 21.5095 28.2582 21.1809 28.662 21.1809H40.4786C40.8824 21.1809 41.2109 21.5095 41.2109 21.9134V24.1106H42.6758V21.9134C42.6758 20.7018 41.6901 19.7161 40.4786 19.7161H28.662C28.4462 19.7161 28.2378 19.7479 28.0405 19.8061C28.4867 16.0458 30.2711 15.2026 33.2155 15.1688C36.3057 16.9228 39.7991 17.7903 44.1406 17.8769V24.1106H45.6055V12.7578C45.6055 12.354 45.934 12.0255 46.3379 12.0255C46.7418 12.0255 47.0703 12.354 47.0703 12.7578V17.7018H48.5352V12.7578C48.5352 12.0429 48.1917 11.4068 47.6613 11.0053L49.4452 9.22137L46.3379 6.11395L43.2305 9.22128L45.0145 11.0053C44.4841 11.4067 44.1407 12.0428 44.1407 12.7577V13.4818C40.5316 13.3987 37.691 12.6896 35.248 11.2693C34.2649 10.6976 33.3854 10.0366 32.5348 9.39716C30.3837 7.78036 28.352 6.25302 25 6.25302C21.648 6.25302 19.6163 7.78036 17.4652 9.39716C16.6147 10.0366 15.7352 10.6976 14.7521 11.2693C12.3091 12.6897 9.46846 13.3988 5.85938 13.4819V12.7578C5.85938 12.0429 5.51602 11.4068 4.98564 11.0053L6.76953 9.22137L3.66211 6.11395L0.554688 9.22137L2.33857 11.0053C1.8082 11.4067 1.46484 12.0429 1.46484 12.7578ZM46.3379 8.18553L47.3736 9.22128L46.3379 10.2572L45.3021 9.22137L46.3379 8.18553ZM15.4884 12.5356C16.5463 11.9206 17.4609 11.233 18.3455 10.5682C20.38 9.03876 22.1372 7.71786 25 7.71786C27.8627 7.71786 29.62 9.03866 31.6546 10.5682C32.5392 11.2331 33.4538 11.9207 34.5117 12.5356C37.1844 14.0896 40.2598 14.8615 44.1407 14.9466V16.4119C39.988 16.3252 36.6784 15.4899 33.7754 13.802C32.9994 13.3509 32.2322 12.7738 31.4201 12.1629C29.4722 10.6976 27.4581 9.18261 25 9.18261C22.5419 9.18261 20.5278 10.6976 18.58 12.1629C17.7679 12.7738 17.0007 13.3509 16.2246 13.802C13.3217 15.4899 10.0121 16.3252 5.85938 16.4119V14.9466C9.74033 14.8615 12.8157 14.0897 15.4884 12.5356ZM3.66211 8.18553L4.69795 9.22128L3.66211 10.2572L2.62627 9.22137L3.66211 8.18553Z" fill="#CCCCCC"/>
<path d="M25.7324 29.97H27.1973V31.4348H25.7324V29.97Z" fill="#CCCCCC"/>
<path d="M22.8027 29.97H24.2676V31.4348H22.8027V29.97Z" fill="#CCCCCC"/>
<path d="M24.2676 12.2108H25.7324V13.6757H24.2676V12.2108Z" fill="#CCCCCC"/>
<path d="M19.1406 22.6458H20.6055V24.1106H19.1406V22.6458Z" fill="#CCCCCC"/>
<path d="M38.2812 22.6458H39.7461V24.1106H38.2812V22.6458Z" fill="#CCCCCC"/>
<path d="M41.9434 28.5051H46.3379V29.9699H41.9434V28.5051Z" fill="#CCCCCC"/>
<path d="M39.0137 28.5051H40.4785V29.9699H39.0137V28.5051Z" fill="#CCCCCC"/>
</svg>
