<svg width="50" height="50" viewBox="0 0 50 50" fill="none" xmlns="http://www.w3.org/2000/svg">
<path d="M36.4092 34.5234H34.9443V35.9883H36.4092V34.5234Z" fill="#CCCCCC"/>
<path d="M38.8506 34.5234H37.3857V35.9883H38.8506V34.5234Z" fill="#CCCCCC"/>
<path d="M41.292 34.5234H39.8272V35.9883H41.292V34.5234Z" fill="#CCCCCC"/>
<path d="M43.7334 34.5234H42.2686V35.9883H43.7334V34.5234Z" fill="#CCCCCC"/>
<path d="M46.3397 22.5517H40.7787C40.8598 22.3228 40.904 22.0765 40.904 21.8201V13.4664C40.904 12.2554 39.9188 11.27 38.7076 11.27H26.4637C25.902 11.27 25.3888 11.482 25 11.8303C24.6112 11.4821 24.098 11.27 23.5363 11.27H11.2924C10.0813 11.27 9.09609 12.2553 9.09609 13.4664V21.8201C9.09609 22.0765 9.14023 22.3228 9.22139 22.5517H3.66025C1.64199 22.5517 0 24.1937 0 26.2119V38.7715H3.1668V42.177H9.14609L10.5296 38.7715H39.4705L40.854 42.177H46.8333V38.7715H50V26.2119C50 24.1937 48.358 22.5517 46.3397 22.5517ZM25.7324 13.4471C25.7428 13.0527 26.0669 12.735 26.4637 12.735H38.7075C39.1108 12.735 39.4391 13.0631 39.4391 13.4665V17.6652H37.207V19.1301H39.4391V21.8202C39.4391 22.2235 39.1109 22.5518 38.7075 22.5518H26.4637C26.0669 22.5518 25.7428 22.2341 25.7324 21.8396C25.7325 21.8332 25.7325 21.8268 25.7325 21.8202V13.4665C25.7325 13.4601 25.7324 13.4536 25.7324 13.4471ZM10.5609 21.1539H12.4939V19.6891H10.5609V13.4665C10.5609 13.0632 10.8891 12.735 11.2924 12.735H23.5362C23.9331 12.735 24.2571 13.0526 24.2675 13.4471C24.2674 13.4535 24.2674 13.46 24.2674 13.4665V21.8202C24.2674 21.8267 24.2675 21.8331 24.2675 21.8396C24.2571 22.2341 23.9331 22.5518 23.5362 22.5518H11.2924C10.8891 22.5517 10.5609 22.2235 10.5609 21.8202V21.1539ZM8.16006 40.7121H4.63164V38.7715H8.94844L8.16006 40.7121ZM45.3684 40.7121H41.8399L41.0516 38.7715H45.3684V40.7121ZM45.3685 37.3065H4.63164V35.9883H11.3157V34.5234H4.63164V30.4475H45.3685V37.3065ZM48.5352 37.3066H46.8332V26.798H45.3684V28.9827H4.63184V26.798H3.16699L3.1668 37.3066H1.46484V26.2119C1.46484 25.0014 2.44971 24.0165 3.66025 24.0165H46.3397C47.5503 24.0165 48.5352 25.0014 48.5352 26.2119V37.3066Z" fill="#CCCCCC"/>
<path d="M5.86102 7.82306V21.331H7.32587V11.8221H9.27733V10.3572H7.32587V9.2879H42.6741V21.331H44.139V7.82306H5.86102Z" fill="#CCCCCC"/>
<path d="M20.0947 14.5117H18.6299V15.9766H20.0947V14.5117Z" fill="#CCCCCC"/>
<path d="M17.6533 14.5117H12.292V15.9766H17.6533V14.5117Z" fill="#CCCCCC"/>
<path d="M22.5361 14.5117H21.0713V15.9766H22.5361V14.5117Z" fill="#CCCCCC"/>
<path d="M37.708 14.5117H36.2432V15.9766H37.708V14.5117Z" fill="#CCCCCC"/>
<path d="M35.2666 14.5117H33.8018V15.9766H35.2666V14.5117Z" fill="#CCCCCC"/>
<path d="M32.8252 14.5117H27.4639V15.9766H32.8252V14.5117Z" fill="#CCCCCC"/>
<path d="M38.7783 25.7275H29.2871V27.1924H38.7783V25.7275Z" fill="#CCCCCC"/>
<path d="M41.2198 25.7275H39.7549V27.1924H41.2198V25.7275Z" fill="#CCCCCC"/>
<path d="M43.6612 25.7275H42.1963V27.1924H43.6612V25.7275Z" fill="#CCCCCC"/>
</svg>
