<svg width="50" height="44" viewBox="0 0 50 44" fill="none" xmlns="http://www.w3.org/2000/svg">
<g clip-path="url(#clip0_168:5)">
<path d="M7.73888 26.1237H6.26068V23.0997L8.2592 21.3414H10.9131V22.6418H8.87108L7.73888 23.6385V26.1237Z" fill="#CCCCCC"/>
<path d="M15.6086 21.3414H17.1738V22.6418H15.6086V21.3414Z" fill="#CCCCCC"/>
<path d="M42.2173 26.8508H43.7825V28.1516H42.2173V26.8508Z" fill="#CCCCCC"/>
<path d="M10.1303 7.5672H11.6959V8.86801H10.1303V7.5672Z" fill="#CCCCCC"/>
<path d="M50 29.6055H47.554L46.0445 20.3074L44.0887 18.5863H42.9565V4.8125H34.3914V6.11331H41.4783V18.5863H33.5651V12.0806L32.3494 11.0107H17.6502L16.4349 12.0806V14.416H17.9131V12.619L18.2625 12.3116H31.7375L32.0869 12.619V18.5863H17.9131V16.4822H16.4349V18.5867H8.52165V6.11331H32.0435V4.8125H7.04346V18.5863H5.91125L3.95546 20.3078L2.44598 29.6055H0V35.0383H2.34795V39.1707H6.95648V35.0383H14.8262V33.7379H1.4782V30.9063H34.3914V29.6055H3.93906L5.34897 20.9207L6.52351 19.8871H43.4765L44.651 20.9207L46.0609 29.6055H36.739V30.9063H48.5218V33.7379H17.1738V35.0383H43.0435V39.1707H47.6521V35.0383H50V29.6055ZM3.82614 35.0387H5.47829V37.8699H3.82614V35.0387ZM46.1739 37.8699H44.5217V35.0387H46.1739V37.8699Z" fill="#CCCCCC"/>
<path d="M12.4783 21.3414H14.0434V22.6418H12.4783V21.3414Z" fill="#CCCCCC"/>
<path d="M42.2173 24.0961H43.7825V25.3969H42.2173V24.0961Z" fill="#CCCCCC"/>
<path d="M39.0869 26.8508H40.6521V28.1516H39.0869V26.8508Z" fill="#CCCCCC"/>
<path d="M13.261 7.5672H14.8262V8.86801H13.261V7.5672Z" fill="#CCCCCC"/>
<path d="M38.348 14.416V15.8316H36.739V17.1324H39.8262V14.416H38.348Z" fill="#CCCCCC"/>
</g>
<defs>
<clipPath id="clip0_168:5">
<rect width="50" height="44" fill="white"/>
</clipPath>
</defs>
</svg>
