<svg width="24" height="24" viewBox="0 0 24 24" fill="none" xmlns="http://www.w3.org/2000/svg">
<g filter="url(#filter0_d_24:9)">
<path d="M23.9374 9.20622C23.7803 8.72024 23.3493 8.37508 22.8393 8.32912L15.9123 7.70014L13.1731 1.2889C12.9712 0.819039 12.5112 0.514893 12.0001 0.514893C11.4891 0.514893 11.0291 0.819039 10.8271 1.29L8.08797 7.70014L1.15982 8.32912C0.65077 8.37618 0.220828 8.72024 0.0628038 9.20622C-0.0952203 9.69219 0.0507185 10.2252 0.435799 10.5612L5.67183 15.1533L4.12785 21.9545C4.01487 22.4546 4.20897 22.9715 4.6239 23.2715C4.84692 23.4326 5.10786 23.5146 5.37098 23.5146C5.59786 23.5146 5.8229 23.4535 6.02487 23.3326L12.0001 19.7614L17.9732 23.3326C18.4103 23.5956 18.9612 23.5716 19.3753 23.2715C19.7904 22.9706 19.9843 22.4535 19.8713 21.9545L18.3273 15.1533L23.5633 10.5621C23.9484 10.2252 24.0955 9.69311 23.9374 9.20622Z" fill="#FFC107"/>
<path d="M23.4617 9.36002L23.4619 9.36057C23.5581 9.65706 23.4688 9.9805 23.2341 10.1858L23.2337 10.1862L17.9977 14.7773L17.7738 14.9736L17.8397 15.264L19.3836 22.0649C19.4526 22.3693 19.3345 22.6835 19.0818 22.8666L19.0818 22.8666C18.8297 23.0494 18.4957 23.0634 18.2309 22.9042L18.2298 22.9035L12.2567 19.3323L12.0002 19.1789L11.7436 19.3322L5.76836 22.9034L5.76814 22.9036C5.64358 22.9781 5.50723 23.0146 5.37098 23.0146C5.21246 23.0146 5.05409 22.9654 4.91671 22.8662C4.6651 22.6842 4.54653 22.3707 4.6155 22.065C4.61552 22.0649 4.61554 22.0648 4.61556 22.0647L6.15943 15.264L6.22533 14.9736L6.00151 14.7774L0.76548 10.1853L0.764531 10.1845C0.531162 9.98086 0.441917 9.65723 0.538297 9.36083C0.634585 9.06472 0.895616 8.85587 1.20537 8.82704C1.20553 8.82703 1.20569 8.82701 1.20584 8.827L8.13318 8.19809L8.43046 8.1711L8.54776 7.89661L11.2866 1.48707C11.2867 1.48694 11.2868 1.48682 11.2868 1.48669C11.4104 1.19887 11.6901 1.01489 12.0001 1.01489C12.3103 1.01489 12.59 1.19901 12.7135 1.48582C12.7136 1.486 12.7137 1.48618 12.7138 1.48636L15.4525 7.89658L15.5698 8.17109L15.8671 8.19809L22.7941 8.82707L22.7944 8.8271C23.1045 8.85505 23.3662 9.06453 23.4617 9.36002ZM23.5633 10.5621C23.9484 10.2252 24.0955 9.69311 23.9374 9.20622C23.7803 8.72024 23.3493 8.37508 22.8393 8.32912L15.9123 7.70014L23.5633 10.5621Z" stroke="black"/>
<path d="M23.4617 9.36002L23.4619 9.36057C23.5581 9.65706 23.4688 9.9805 23.2341 10.1858L23.2337 10.1862L17.9977 14.7773L17.7738 14.9736L17.8397 15.264L19.3836 22.0649C19.4526 22.3693 19.3345 22.6835 19.0818 22.8666L19.0818 22.8666C18.8297 23.0494 18.4957 23.0634 18.2309 22.9042L18.2298 22.9035L12.2567 19.3323L12.0002 19.1789L11.7436 19.3322L5.76836 22.9034L5.76814 22.9036C5.64358 22.9781 5.50723 23.0146 5.37098 23.0146C5.21246 23.0146 5.05409 22.9654 4.91671 22.8662C4.6651 22.6842 4.54653 22.3707 4.6155 22.065C4.61552 22.0649 4.61554 22.0648 4.61556 22.0647L6.15943 15.264L6.22533 14.9736L6.00151 14.7774L0.76548 10.1853L0.764531 10.1845C0.531162 9.98086 0.441917 9.65723 0.538297 9.36083C0.634585 9.06472 0.895616 8.85587 1.20537 8.82704C1.20553 8.82703 1.20569 8.82701 1.20584 8.827L8.13318 8.19809L8.43046 8.1711L8.54776 7.89661L11.2866 1.48707C11.2867 1.48694 11.2868 1.48682 11.2868 1.48669C11.4104 1.19887 11.6901 1.01489 12.0001 1.01489C12.3103 1.01489 12.59 1.19901 12.7135 1.48582C12.7136 1.486 12.7137 1.48618 12.7138 1.48636L15.4525 7.89658L15.5698 8.17109L15.8671 8.19809L22.7941 8.82707L22.7944 8.8271C23.1045 8.85505 23.3662 9.06453 23.4617 9.36002ZM23.5633 10.5621C23.9484 10.2252 24.0955 9.69311 23.9374 9.20622C23.7803 8.72024 23.3493 8.37508 22.8393 8.32912L15.9123 7.70014L23.5633 10.5621Z" stroke="url(#paint0_linear_24:9)"/>
</g>
<defs>
<filter id="filter0_d_24:9" x="-4" y="0.514893" width="32.0001" height="30.9998" filterUnits="userSpaceOnUse" color-interpolation-filters="sRGB">
<feFlood flood-opacity="0" result="BackgroundImageFix"/>
<feColorMatrix in="SourceAlpha" type="matrix" values="0 0 0 0 0 0 0 0 0 0 0 0 0 0 0 0 0 0 127 0" result="hardAlpha"/>
<feOffset dy="4"/>
<feGaussianBlur stdDeviation="2"/>
<feColorMatrix type="matrix" values="0 0 0 0 0 0 0 0 0 0 0 0 0 0 0 0 0 0 0.25 0"/>
<feBlend mode="normal" in2="BackgroundImageFix" result="effect1_dropShadow_24:9"/>
<feBlend mode="normal" in="SourceGraphic" in2="effect1_dropShadow_24:9" result="shape"/>
</filter>
<linearGradient id="paint0_linear_24:9" x1="12" y1="0.514893" x2="12" y2="23.5146" gradientUnits="userSpaceOnUse">
<stop stop-color="white"/>
<stop offset="1" stop-color="white" stop-opacity="0"/>
</linearGradient>
</defs>
</svg>
