<svg width="28" height="28" viewBox="0 0 28 28" fill="none" xmlns="http://www.w3.org/2000/svg">
<path d="M27.927 10.7406C27.7437 10.1736 27.2408 9.77093 26.6459 9.71731L18.5643 8.98349L15.3686 1.50372C15.133 0.955545 14.5964 0.600708 14.0001 0.600708C13.4039 0.600708 12.8673 0.955545 12.6316 1.505L9.43597 8.98349L1.35312 9.71731C0.759232 9.77221 0.257633 10.1736 0.0732711 10.7406C-0.11109 11.3076 0.0591716 11.9294 0.508432 12.3214L6.61714 17.6788L4.81582 25.6136C4.68402 26.197 4.91046 26.8001 5.39454 27.15C5.65474 27.338 5.95917 27.4337 6.26615 27.4337C6.53084 27.4337 6.79339 27.3624 7.02902 27.2214L14.0001 23.055L20.9687 27.2214C21.4786 27.5282 22.1214 27.5002 22.6045 27.15C23.0888 26.799 23.315 26.1958 23.1832 25.6136L21.3819 17.6788L27.4906 12.3225C27.9398 11.9294 28.1114 11.3086 27.927 10.7406Z" fill="white"/>
</svg>
